<svg viewBox="0 0 64 64" fill="none" xmlns="http://www.w3.org/2000/svg">
<path d="M31.3445 0.620895C31.3445 0.955223 30.6758 2.05373 29.8161 3.05672C27.9057 5.39701 27.3803 8.93134 28.8131 10.3642C30.2937 11.8448 31.3445 13.5164 31.3445 14.3761C31.3445 14.8537 30.5803 16.0955 29.6728 17.194C26.9027 20.5373 26.9027 22.0179 29.7206 25.3612C31.7266 27.7493 31.7743 29.0866 29.9117 31.1881C27.0937 34.4358 27.046 36.394 29.7206 39.7373C30.6281 40.8836 31.3445 42.2687 31.3445 42.8418C31.3445 43.4149 30.4848 44.8955 29.434 46.0896C26.8072 49.1463 26.9027 50.8179 29.9594 54.3522C31.7266 56.3582 31.6788 57.6955 29.9117 59.9403C28.5266 61.7075 28.0012 64 28.9564 64C29.243 64 29.434 63.7134 29.434 63.3313C29.434 62.9493 29.9594 61.994 30.6281 61.2299C33.2072 58.1254 33.1594 55.403 30.3893 52.7761C29.3863 51.8209 28.9564 50.9612 28.9564 49.9104C28.9564 48.8597 29.3863 48 30.3893 47.0448C32.1564 45.3731 32.9684 43.0806 32.3475 41.5045C32.1087 40.8836 31.249 39.5463 30.437 38.4955C28.5743 36.1552 28.5743 34.8657 30.3893 32.7642C33.2549 29.5164 33.2549 27.7015 30.437 24.1672C28.6221 21.8746 28.5743 20.5373 30.3415 18.5313C33.2549 15.1881 33.3505 13.4209 30.8191 10.5075C28.6221 7.92836 28.5743 7.0209 30.4848 4.15522C32.5863 1.05075 32.9684 0 32.0609 0C31.6788 0 31.3445 0.286568 31.3445 0.620895Z" fill="#475569"/>
<path d="M27.7624 1.43298C27.6191 1.95835 26.7117 3.2479 25.8042 4.34641C23.655 6.92551 23.6072 9.02701 25.6132 11.3195C27.5236 13.5166 27.4759 15.1404 25.3744 17.6718C22.8908 20.633 23.1773 22.7822 26.4251 26.1733C27.5236 27.2718 27.1893 30.2807 25.852 31.5225C24.4191 32.8598 23.5117 35.4389 23.9415 36.8718C24.1326 37.4927 24.8968 38.7822 25.6609 39.7375C27.4759 42.03 27.4759 43.8449 25.6132 45.8987C23.1296 48.7166 23.1296 51.1524 25.6609 53.7792C27.4281 55.5942 27.6191 57.6479 26.1385 59.4628C25.0878 60.8001 24.7535 63.0449 25.6132 63.0449C25.8997 63.0449 26.0908 62.8061 26.0908 62.5195C26.0908 62.233 26.6162 61.3255 27.2848 60.4658C29.052 58.1255 28.9087 55.7852 26.8072 53.2061C24.6102 50.5315 24.6102 48.8598 26.8072 46.3763C29.052 43.9404 29.052 42.0778 26.8072 38.9733C25.8997 37.6837 25.1356 36.1076 25.1356 35.5345C25.1356 34.9613 25.8997 33.5763 26.8072 32.4778C28.0968 30.9016 28.4788 30.0419 28.4788 28.5613C28.4788 27.033 28.1445 26.221 26.8072 24.7882C24.6102 22.3046 24.6102 20.633 26.8072 17.9584C29.0042 15.2837 29.052 13.1345 27.046 10.8419C25.0878 8.59716 25.1356 6.82999 27.2848 4.01208C28.9087 1.91059 29.3863 0.477753 28.5266 0.477753C28.2878 0.477753 27.9535 0.907604 27.7624 1.43298Z" fill="#475569"/>
<path d="M34.6878 1.00343C34.6878 1.29 34.0669 2.34074 33.3505 3.29597C30.9147 6.35268 31.0102 8.21537 33.7326 11.3198C35.643 13.4691 35.5953 15.093 33.5415 17.481C32.6818 18.484 31.8221 19.8213 31.6311 20.3467C31.2012 21.684 32.0132 23.6422 33.7326 25.6482C35.5953 27.7497 35.5475 28.9915 33.3983 31.7139C32.1565 33.29 31.6311 34.484 31.6311 35.5825C31.6311 36.681 32.1565 37.8751 33.3983 39.4512C35.4997 42.1258 35.643 43.7975 34.0192 45.3258C33.3505 45.9467 32.4908 47.1885 32.0609 48.096C31.1057 50.1019 31.5833 51.8213 33.7326 54.2572C34.4968 55.1646 35.1654 56.3109 35.1654 56.7885C35.1654 57.2661 34.4012 58.7945 33.446 60.1796C32.5386 61.5169 31.8221 63.0452 31.9177 63.6184C32.0132 64.3825 32.5386 63.8572 34.1624 61.4213C36.7415 57.5049 36.8848 55.69 34.7356 53.2542C32.6818 50.8661 32.7296 48.9557 34.9744 46.281C36.455 44.4661 36.646 43.9885 36.455 42.3646C36.2639 41.1228 35.6908 39.9288 34.7356 38.9736C32.6818 36.8243 32.6818 34.3407 34.7833 32.1437C36.0251 30.8542 36.2639 30.2333 36.2639 28.4184C36.2639 26.6034 36.0251 25.9825 34.7833 24.693C32.7774 22.5915 32.7296 20.4422 34.6878 18.2452C35.452 17.3378 36.2162 16.1915 36.4072 15.6661C36.8848 14.0422 36.1684 11.7019 34.6878 10.2691C32.7774 8.40641 32.7774 6.16164 34.6878 3.63029C36.2639 1.57656 36.5027 0.478054 35.4042 0.478054C35.0221 0.478054 34.6878 0.716862 34.6878 1.00343Z" fill="#475569"/>
<path d="M38.0311 1.57655C38.0311 1.91087 37.4579 2.96162 36.7893 3.86908C35.1176 6.11386 35.4042 8.97953 37.5057 11.1765C39.5116 13.2303 39.5116 15.3795 37.5057 17.481C36.5505 18.4362 35.9773 19.6303 35.7863 20.8243C35.5952 22.4004 35.7863 23.0213 37.2669 24.9318C38.2221 26.1736 38.9863 27.7019 38.9863 28.3706C38.9863 29.0392 38.2221 30.5676 37.3146 31.8094C34.9743 34.8661 35.2131 37.7795 37.9833 40.3109C39.5594 41.7437 39.3206 44.2751 37.4579 46.2333C36.1684 47.5228 35.8818 48.1915 35.8818 49.9109C35.8818 51.6303 36.1684 52.2989 37.4579 53.5885C38.2699 54.496 38.9863 55.6422 38.9863 56.2154C38.9863 56.7885 38.1266 58.3646 37.0758 59.7497C36.0251 61.1825 35.1654 62.7586 35.2131 63.284C35.2131 64.1915 35.2609 64.1915 35.7863 63.3318C36.1206 62.8064 36.9325 61.7079 37.6967 60.896C39.3684 58.89 40.5146 56.1676 40.0848 55.0691C39.9415 54.5915 39.1773 53.493 38.4131 52.6333C36.646 50.5795 36.7415 49.3377 38.7475 46.6631C39.8937 45.1348 40.4191 43.9885 40.4191 42.8422C40.4191 41.6482 39.9415 40.5974 38.7475 39.1646C36.5505 36.5377 36.5505 34.8183 38.7475 32.0482C40.9922 29.278 40.9922 27.5109 38.7475 24.8363C37.6967 23.5945 37.0758 22.3049 37.0758 21.493C37.0758 20.681 37.6967 19.3915 38.7475 18.1497C41.04 15.4273 41.04 13.4691 38.6519 10.6034C36.646 8.11983 36.4072 6.25714 37.9355 4.63326C38.9863 3.48699 39.3684 0.95565 38.5087 0.95565C38.2699 0.95565 38.0311 1.24222 38.0311 1.57655Z" fill="#475569"/>
<path d="M24.6579 1.86256C24.6579 2.05361 23.846 3.2954 22.843 4.58495C21.7923 5.8745 20.837 7.45063 20.6938 8.07152C20.4072 9.31331 21.2669 11.367 22.4609 12.37C23.7505 13.4208 23.3684 15.5223 21.5535 17.6715C19.3087 20.3461 19.3087 22.1133 21.5535 24.8835C23.7505 27.6536 23.7505 29.2775 21.5535 32.0476C19.2132 35.0088 19.3087 36.967 22.0788 40.2626C23.6072 42.0775 23.5117 43.4626 21.7923 45.6118C19.2609 48.7641 19.3087 50.2447 22.0788 53.5402C23.9415 55.785 24.0848 56.8835 22.7475 58.6029C21.7923 59.8447 21.5057 61.182 22.1266 61.7551C22.4132 62.0894 22.6042 61.8506 24.3236 58.7939C25.3744 56.9312 24.8967 54.8775 22.7475 52.4417C20.837 50.2924 20.8848 48.4775 22.8908 46.4238C24.1326 45.1342 24.4191 44.4656 24.4191 42.7939C24.4191 41.17 24.0848 40.4059 22.8908 38.973C20.9803 36.8715 20.7893 34.5312 22.3176 33.1461C25.0878 30.6148 25.3266 27.7491 22.9863 24.7879C20.8848 22.1133 20.837 20.585 22.843 18.1014C24.849 15.57 24.9445 13.2297 23.0818 11.0327C21.3146 8.93122 21.4579 7.73719 23.7027 4.87152C25.6132 2.48346 26.043 1.43271 25.1355 1.43271C24.8967 1.43271 24.6579 1.62376 24.6579 1.86256Z" fill="#475569"/>
<path d="M41.3744 2.77029C41.3744 3.29567 41.04 4.01208 40.6102 4.34641C38.6042 6.01805 39.0341 9.21806 41.5654 11.9404C43.4758 13.9942 43.4758 14.9494 41.6609 17.1464C38.9385 20.3942 38.9385 22.2091 41.6609 25.4569C43.3326 27.4151 43.1415 29.421 41.1356 31.9524C39.1296 34.4837 38.9863 36.4419 40.6579 38.7345C41.2788 39.6419 42.1863 40.836 42.6161 41.4569C43.3803 42.5076 43.3803 42.6509 42.6639 44.0837C42.2341 44.9434 41.3744 46.1852 40.8012 46.9494C39.3206 48.7643 39.4161 51.0569 41.04 52.9673C42.9505 55.2598 42.7117 56.7882 39.8938 60.0837C38.5087 61.6121 38.0788 63.0449 38.9385 63.0449C39.1773 63.0449 39.5594 62.6151 39.7027 62.0419C39.8938 61.5166 40.6579 60.3703 41.4221 59.5106C44.049 56.5016 44.24 54.5434 42.043 52.2031C40.6102 50.6748 40.5624 48.6688 41.8997 47.4748C44.7176 44.9434 44.9564 41.9822 42.5684 39.1643C41.4699 37.8748 40.8967 36.6807 40.8967 35.7255C40.8967 34.8658 41.5176 33.5285 42.5684 32.1434C44.9087 29.0867 44.6699 26.221 41.8997 23.6897C40.4191 22.3524 40.6579 20.4419 42.5684 18.1494C44.9564 15.2837 44.7654 13.5643 41.8042 10.1255C40.1803 8.31059 40.037 6.68671 41.3744 5.49268C42.3773 4.58522 42.6639 2.62701 41.852 2.1494C41.6132 2.00611 41.3744 2.29268 41.3744 2.77029Z" fill="#475569"/>
<path d="M21.3147 2.96073C21.3147 3.29506 20.646 4.29804 19.8341 5.15774C17.1117 8.07117 16.6818 10.7458 18.64 12.3697C19.8818 13.4204 19.5475 15.6652 17.9236 17.7667C16.8251 19.1518 16.3953 20.1548 16.3953 21.4921C16.3953 22.9249 16.7774 23.7846 17.9236 25.0742C19.8818 27.3189 19.8818 29.1339 17.8759 31.6652C16.5863 33.2413 16.2997 34.0533 16.2997 35.916C16.2997 37.7786 16.5385 38.3995 17.8759 39.7368C19.8818 41.8383 19.9296 43.7965 17.9714 45.9936C16.0132 48.2383 16.0609 50.0055 18.1624 52.4891C20.4072 55.1637 20.5983 56.0712 19.4997 57.9339C18.5923 59.4622 18.5445 60.6562 19.452 60.6562C19.7385 60.6562 19.8341 60.4652 19.6908 60.2264C19.5475 60.0354 19.8341 59.4622 20.3594 58.9846C22.0311 57.4562 21.5057 54.5906 19.0221 51.9637C17.3505 50.1488 17.446 48.2383 19.3087 46.0891C21.5057 43.6533 21.3147 41.7906 18.64 38.5428C17.0639 36.6801 17.2072 35.0085 19.1654 32.2861C21.0281 29.6592 21.3147 27.6533 20.0251 25.7906C19.5953 25.1219 19.0699 24.501 18.9266 24.3577C18.3057 23.9279 17.4938 22.0174 17.4938 21.11C17.4938 20.5846 18.258 19.2473 19.1654 18.101C21.2191 15.5219 21.3624 13.5637 19.643 11.5577C18.0191 9.64729 18.1147 8.59655 20.1206 6.16073C22.4609 3.39058 22.9863 2.38759 22.0311 2.38759C21.649 2.38759 21.3147 2.67416 21.3147 2.96073Z" fill="#475569"/>
<path d="M16.8728 6.11386C14.0549 9.5049 13.7684 10.5079 15.0579 12.3706C16.443 14.3288 16.2997 15.6661 14.3893 18.1019C12.24 20.7765 12.1923 22.5915 14.1505 25.0751C16.0131 27.4154 15.9654 28.8959 13.9117 31.8094C11.7624 34.8661 11.7146 36.5377 13.8639 39.3079C16.2042 42.4124 16.2997 42.9377 14.5803 45.5646C12.7176 48.3348 12.9087 49.9109 15.3445 52.5855C17.2072 54.6392 17.2549 54.878 16.443 57.1706C15.9654 58.4601 16.0131 58.8422 16.4908 59.3198C16.8728 59.6542 17.0161 59.7019 16.8728 59.4154C16.6818 59.1288 16.8728 58.4601 17.2549 57.9825C18.4967 56.3109 18.1146 54.3527 16.0609 51.8691C15.0102 50.6273 14.1505 49.3377 14.1505 49.0512C14.1505 48.7646 14.8191 47.5228 15.6311 46.2333C17.4937 43.3676 17.3505 41.2183 15.1057 38.9258C13.1475 36.9198 13.1952 34.9139 15.2012 32.3825C17.3027 29.7079 17.3027 27.2243 15.249 24.3586C13.2908 21.7795 13.2908 21.0154 15.1057 18.9616C17.637 16.0482 17.9714 13.4691 16.0131 11.6542C14.6281 10.4124 14.9146 9.36162 17.2549 6.68699C19.0221 4.68102 19.8818 3.29595 19.3087 3.34371C19.2131 3.34371 18.1146 4.5855 16.8728 6.11386Z" fill="#475569"/>
<path d="M43.8579 5.15857C42.3773 7.45111 42.7117 9.50484 44.9087 11.9884C47.0102 14.281 47.0579 15.0929 45.1952 17.4332C42.7594 20.5377 42.7594 21.9705 45.1952 25.075C46.9624 27.3198 47.0579 29.469 45.4818 31.3795C42.7594 34.675 42.6639 36.3466 44.9564 39.3556C46.7236 41.6481 47.1057 43.8451 46.0072 44.9914C42.9982 48.0959 42.5684 50.1974 44.4788 52.4422C46.1505 54.4004 45.9594 55.7854 43.7624 58.4601C41.852 60.8004 41.4699 61.6123 42.3296 61.6123C42.6161 61.6123 42.8072 61.4213 42.8072 61.1347C42.8072 60.8959 43.5714 59.8451 44.4788 58.8422C47.249 55.7854 47.5833 53.3496 45.4818 51.6302C44.1923 50.5317 44.5266 48.2869 46.3893 46.281C48.634 43.7496 48.634 41.8869 46.3893 39.1645C44.3833 36.7765 44.24 35.0093 45.8639 33.0989C48.634 29.7078 48.7773 27.463 46.3893 24.4063C44.3355 21.8272 44.2878 20.7287 46.1505 18.3884C48.1087 15.9048 48.0609 14.0422 45.9594 11.5108C43.7146 8.83618 43.4758 7.92872 44.7176 6.20932C45.3385 5.30185 45.5773 4.53767 45.3385 4.10782C45.052 3.63021 44.6699 3.91678 43.8579 5.15857Z" fill="#475569"/>
<path d="M14.4371 6.97277C13.4341 8.16681 12.4789 9.0265 12.3356 8.88322C12.1923 8.73994 12.4789 8.11904 13.0042 7.54591L13.9117 6.4474L12.6699 7.54591C12.0013 8.11904 11.2848 8.50113 11.1416 8.35785C10.9505 8.21457 10.9028 8.26233 11.046 8.40561C11.1416 8.59666 10.7117 9.50412 10.0908 10.4593C8.84902 12.2743 8.56245 13.6116 9.37439 14.0892C10.3774 14.7101 9.80425 16.7161 7.98932 18.8176C5.41022 21.7787 5.12365 23.4504 6.69977 25.7429C8.32365 28.0832 8.27589 29.134 6.26992 31.522C3.88186 34.3877 3.97738 36.0116 6.74753 39.2116C9.13559 42.0295 9.32663 42.8892 7.8938 44.8474C6.65201 46.519 6.98633 47.9996 9.08783 50.4832C11.1416 52.8713 11.9057 54.3041 11.2848 54.6862C11.046 54.8295 10.9505 55.2593 11.0938 55.6414C11.5236 56.7399 12.2401 55.9758 12.2401 54.3996C12.2401 53.4922 11.6669 52.3937 10.6162 51.2474C7.94156 48.1907 7.75051 47.522 8.94454 45.5638C10.3296 43.2713 9.94753 40.9787 7.70275 38.6862C5.69678 36.6325 5.41022 34.1489 7.0341 32.6683C8.37141 31.4743 9.37439 29.4683 9.37439 28.0355C9.37439 27.4146 8.84902 26.2205 8.18036 25.3131C6.55648 23.0683 6.69977 21.8743 8.89678 19.0564C10.8072 16.6205 11.4759 13.8504 10.3296 13.134C9.56544 12.6564 9.80425 11.2235 10.855 10.0773C12.049 8.83546 12.5266 9.0265 11.7625 10.5071C11.3326 11.319 11.4281 11.7967 12.2401 13.0862C13.3863 14.9489 13.1953 15.6653 10.9505 18.4355C8.65798 21.3011 8.51469 22.7817 10.2819 25.0265C12.1923 27.4623 12.1923 29.0862 10.2341 31.331C8.94454 32.8116 8.65798 33.528 8.65798 35.3429C8.65798 37.2534 8.89678 37.8743 10.4729 39.5937C12.4789 41.8385 12.7177 43.4146 11.2848 45.2295C9.75648 47.1877 10.0431 49.0982 12.2401 51.7728C14.1983 54.1131 14.5326 55.3071 13.6251 56.2146C12.8132 57.0265 13.5774 57.9817 14.4371 57.2653C15.6789 56.2623 15.2013 54.2086 13.1953 51.7728C11.0938 49.1937 10.7595 47.4265 12.1923 46.137C14.1028 44.3698 13.7684 41.0265 11.4759 39.1161C11.046 38.734 10.3774 37.731 9.99529 36.8713C9.27887 35.1996 9.51768 34.5787 12.0013 31.0922C13.8162 28.6086 13.5774 27.2713 10.7595 23.3549C9.99529 22.3041 10.5684 20.3937 12.1923 18.531C14.1028 16.2862 14.3893 14.6146 13.1953 12.6564C12.049 10.7459 12.2401 10.125 14.9625 7.11606C15.9177 6.06531 16.5863 5.11009 16.4431 5.01456C16.3475 4.91904 15.4401 5.77874 14.4371 6.97277Z" fill="#475569"/>
<path d="M46.9147 6.06573C45.7207 7.68961 46.1505 10.221 48.0132 12.1314C50.1147 14.3284 50.3057 15.7613 48.6819 17.6717C46.8669 19.8687 46.8192 22.7821 48.5863 24.6926C50.0192 26.221 50.9266 27.7971 50.9266 28.8001C50.9266 29.1821 50.2102 30.4239 49.3027 31.4747C46.6281 34.6747 46.6281 37.0627 49.255 40.215C50.8311 42.0777 50.7356 43.3672 49.0162 45.4687C46.4848 48.5254 46.246 50.818 48.252 52.4896C49.4938 53.5404 49.1595 54.6389 46.8192 57.5045C45.5774 58.9851 44.7177 60.3702 44.9087 60.5613C45.0998 60.7523 45.4819 60.4657 45.7684 59.9881C46.055 59.5105 47.0102 58.2687 47.8699 57.3135C49.9714 54.9732 50.4013 53.0627 49.0639 51.8687C47.5833 50.5314 47.8222 48.621 49.7326 46.3284C51.9296 43.7016 52.0251 41.5045 49.9714 38.9254C48.1087 36.5374 48.1565 35.009 50.2102 32.4299C52.5983 29.421 52.3595 26.221 49.5416 23.6896C48.2042 22.4478 48.252 20.3463 49.7326 18.4359C51.5953 16.0001 51.261 14.3284 48.4908 11.0807C47.058 9.45678 46.7714 8.16722 47.6311 7.30752C47.9177 7.02095 48.061 6.35229 47.9654 5.82692C47.8222 4.91946 47.7744 4.91946 46.9147 6.06573Z" fill="#475569"/>
<path d="M49.5893 7.21218C48.7296 8.59726 49.2072 10.3644 51.1654 12.848C53.0759 15.2361 53.2192 16.5734 51.8819 18.2928C50.3535 20.251 50.6401 22.6868 52.6938 25.2182C54.8431 27.845 54.8908 29.3256 52.9326 31.8092C52.1207 32.8599 51.3087 34.3405 51.1177 35.1525C50.8311 36.7286 51.6908 38.9734 53.0281 40.0719C54.3177 41.1226 53.9356 43.3674 52.1684 45.4211C50.1147 47.857 49.7804 49.4808 50.9744 51.4868C51.452 52.3465 51.8819 53.254 51.8819 53.4928C51.8819 53.7316 50.8789 55.0211 49.6848 56.4062C48.4908 57.7435 47.6311 58.9376 47.7744 59.0808C47.9177 59.2241 48.5386 58.6988 49.2072 57.9823C49.9236 57.1704 50.4013 56.8838 50.449 57.2659C50.449 57.648 50.8789 57.4092 51.452 56.6928C51.9774 55.9764 52.646 55.451 52.9804 55.5465C53.2669 55.5943 53.5057 55.3077 53.5535 54.9256C53.5535 54.5435 53.7923 54.2092 54.1266 54.2092C54.4132 54.2092 54.8431 54.0182 55.0819 53.7793C55.3207 53.5405 55.2251 53.4928 54.8908 53.6838C54.1744 54.0659 54.0311 53.2062 54.7475 52.7764C55.4162 52.3943 55.3684 50.8182 54.652 49.7196C53.9833 48.6211 54.4132 47.5704 56.8968 44.5137C58.9028 42.0301 58.9983 40.7883 57.3744 38.4002C56.7057 37.445 56.1804 36.3465 56.1804 35.9644C56.1804 34.9614 57.3744 32.8599 58.5207 31.8092C60.2878 30.2331 59.858 27.7973 57.3744 24.8838C54.9863 22.0659 54.7953 21.2062 56.2281 19.3913C57.3266 18.0062 57.1833 15.8092 55.8938 14.7585C55.5117 14.4719 55.2251 13.9943 55.2251 13.7077C55.2251 12.9435 58.1386 15.857 58.6162 17.0988C58.9028 17.8629 58.8072 18.5316 58.2819 19.3435C57.1833 21.0629 57.7565 23.4032 59.7625 25.3614C60.6699 26.2689 61.6729 27.5585 61.9595 28.2749C62.4371 29.4689 62.3416 29.8032 61.1475 31.3316C58.1863 35.057 57.8998 36.3943 59.7625 38.5913C61.3863 40.5017 61.2908 41.2182 59.0938 43.6062C56.5147 46.4241 56.0371 47.5226 56.4192 49.7196C56.849 52.2032 57.7565 51.5823 57.3744 49.051C57.0878 47.1405 57.1833 46.9017 59.4759 44.2749C62.1505 41.2182 62.4848 39.7853 60.9565 37.8749C59.5714 36.1077 59.7625 34.8182 61.6729 32.6211C64.0132 29.851 63.7744 27.6062 60.9087 25.3614C60.1923 24.8361 59.3804 23.7376 59.046 22.9256C58.5684 21.7316 58.5684 21.3017 59.2371 20.2988C60.3833 18.5793 60.2401 18.0062 57.6132 14.7585C56.3236 13.1346 55.2251 11.4152 55.2251 10.9376C55.2251 10.4599 54.9863 9.93457 54.6998 9.74353C54.1266 9.40919 54.2699 10.7943 54.9863 12.657C55.3684 13.6122 55.3684 13.6122 54.3177 12.657C52.7893 11.3196 52.1684 10.0301 52.7416 9.45696C53.0281 9.17039 53.1236 8.64502 52.9804 8.26293C52.7416 7.68979 52.646 7.68979 52.3117 8.21517C51.4998 9.50472 51.9296 10.9853 53.7445 13.0868C56.2281 15.9525 56.4669 16.9077 55.2729 18.4361C53.6968 20.442 53.9833 22.4958 56.1804 25.0749C58.7595 28.0361 58.855 29.2779 56.6102 31.9525C54.8908 34.054 54.6998 37.3973 56.1804 39.3077C57.5177 40.9793 57.3744 42.6988 55.7505 44.5137C53.4102 47.2361 52.5505 50.1017 53.7923 50.8659C54.652 51.3913 54.3177 52.9196 53.0281 54.448C51.4998 56.2629 51.1177 56.0719 52.1684 54.0659C52.8848 52.6331 52.8371 52.442 51.9774 50.9614C51.1177 49.6241 51.0699 49.242 51.5953 48.0002C51.9296 47.1883 52.5983 46.2808 53.0281 45.8988C54.0789 44.9913 55.2251 42.7943 55.2251 41.648C55.2251 41.1226 54.6042 39.9286 53.7923 38.9256C51.8819 36.5376 51.9296 34.9614 54.0789 32.4301C55.6072 30.5674 55.7983 30.1376 55.5595 28.3226C55.4162 26.842 54.8431 25.7435 53.6013 24.3585C51.6908 22.2092 51.452 20.7286 52.7893 19.0092C54.461 16.9077 54.2699 15.1405 52.1207 12.657C50.0669 10.3167 49.7326 9.40919 50.449 8.07188C51.2132 6.73457 50.3535 5.92263 49.5893 7.21218Z" fill="#475569"/>
<path d="M6.84302 13.1825C6.65197 13.3735 6.65197 14.3287 6.79526 15.3317C7.08182 16.9078 6.89078 17.3377 5.21914 19.2004C1.97138 22.6869 1.58929 24.1198 3.16541 26.1258C4.55048 27.8929 4.35943 29.2302 2.44899 31.5228C0.108688 34.2929 0.251972 35.678 2.9266 38.5437C5.5057 41.2183 5.93555 42.4601 4.83705 44.084C4.16839 45.1347 4.16839 45.469 4.74152 46.9019C5.12361 47.7616 6.22212 49.2422 7.17735 50.1019C8.13257 51.0571 8.89675 52.2511 8.89675 52.8243C8.89675 53.4452 9.13555 54.0661 9.37436 54.2093C9.66093 54.3526 9.85197 54.0661 9.85197 53.5407C9.85197 53.0153 8.80123 51.2481 7.46391 49.6243C4.88481 46.4243 4.69376 45.8034 5.79227 44.8959C7.32063 43.6063 6.50869 40.8362 3.69078 37.7795C2.59227 36.6332 1.73257 35.3437 1.73257 34.9138C1.73257 34.4362 2.35346 33.481 3.16541 32.7168C5.74451 30.2332 6.07884 27.272 3.97735 24.9795C2.78332 23.6422 3.11764 22.6869 5.98332 19.3914C7.27287 17.9108 7.94152 16.7168 7.89376 15.8571C7.846 14.1855 7.27287 12.7526 6.84302 13.1825Z" fill="#475569"/>
</svg>
