<svg viewBox="0 0 24 24" fill="none" xmlns="http://www.w3.org/2000/svg">
<g id="ic_close" clip-path="url(#clip0_360_693)">
<g id="icon">
<path id="Vector" d="M17.9909 7.03876C14.3462 10.6835 10.688 14.3417 7.03876 17.9909C6.70455 17.6567 6.35228 17.2999 6 16.9476C9.6447 13.3029 13.3029 9.6447 16.9476 6C17.2954 6.34776 17.6477 6.70003 17.9909 7.03876Z" fill="#475569"/>
<path id="Vector_2" d="M11.1622 10.137C10.828 10.4712 10.4757 10.8235 10.1279 11.1712C8.75497 9.79825 7.37297 8.41625 6.00452 7.04779C6.34776 6.70907 6.70003 6.35679 7.04328 6.01807C8.40722 7.37749 9.78922 8.75949 11.1622 10.137Z" fill="#475569"/>
<path id="Vector_3" d="M18 16.9614C17.6567 17.3047 17.3044 17.657 16.9567 18.0002C15.5837 16.6272 14.2062 15.2497 12.8333 13.8768C13.1765 13.5335 13.5288 13.1813 13.872 12.8335C15.2495 14.2065 16.6315 15.5885 18 16.9614Z" fill="#475569"/>
</g>
</g>
<defs>
<clipPath id="clip0_360_693">
<rect width="24" height="24" fill="white"/>
</clipPath>
</defs>
</svg>
